<?xml version="1.0" encoding="UTF-8"?>
<svg width="24px" height="24px" viewBox="0 0 24 24" version="1.1" xmlns="http://www.w3.org/2000/svg" xmlns:xlink="http://www.w3.org/1999/xlink">
    <!-- Generator: Sketch 51.2 (57519) - http://www.bohemiancoding.com/sketch -->
    <title>Business/Schedule_Template/business_schedule_template_brush_orange</title>
    <desc>Created with Sketch.</desc>
    <defs>
        <linearGradient x1="96.6083098%" y1="80.3665367%" x2="5.3034243%" y2="103.236058%" id="linearGradient-1">
            <stop stop-color="#FFFFFF" stop-opacity="0" offset="0%"></stop>
            <stop stop-color="#5F5F5F" offset="100%"></stop>
        </linearGradient>
        <path d="M5,9 L5,1 C5,0.44771525 5.44771525,1.01453063e-16 6,0 L10,0 C10.5522847,-1.01453063e-16 11,0.44771525 11,1 L11,9 L15,9 C15.5522847,9 16,9.44771525 16,10 L16,14 C16,14.5522847 15.5522847,15 15,15 L1,15 C0.44771525,15 6.76353751e-17,14.5522847 0,14 L0,10 C-6.76353751e-17,9.44771525 0.44771525,9 1,9 L5,9 Z" id="path-2"></path>
        <filter x="-6.2%" y="-6.7%" width="112.5%" height="113.3%" filterUnits="objectBoundingBox" id="filter-3">
            <feGaussianBlur stdDeviation="0.5" in="SourceAlpha" result="shadowBlurInner1"></feGaussianBlur>
            <feOffset dx="1" dy="1" in="shadowBlurInner1" result="shadowOffsetInner1"></feOffset>
            <feComposite in="shadowOffsetInner1" in2="SourceAlpha" operator="arithmetic" k2="-1" k3="1" result="shadowInnerInner1"></feComposite>
            <feColorMatrix values="0 0 0 0 1   0 0 0 0 1   0 0 0 0 1  0 0 0 0.3 0" type="matrix" in="shadowInnerInner1"></feColorMatrix>
        </filter>
    </defs>
    <g id="Business/Schedule_Template/business_schedule_template_brush_orange" stroke="none" stroke-width="1" fill="none" fill-rule="evenodd">
        <rect id="Rectangle-2" stroke="#979797" fill="#D8D8D8" opacity="0" x="0.5" y="0.5" width="23" height="23"></rect>
        <rect id="Rectangle-5" fill="url(#linearGradient-1)" x="12" y="14" width="8" height="8"></rect>
        <g id="Group" transform="translate(13.727922, 9.727922) rotate(45.000000) translate(-13.727922, -9.727922) translate(5.727922, -0.272078)">
            <g id="Combined-Shape">
                <use fill="#1E2618" fill-rule="evenodd" xlink:href="#path-2"></use>
                <use fill="black" fill-opacity="1" filter="url(#filter-3)" xlink:href="#path-2"></use>
                <path stroke="#1A1A1A" stroke-width="1" d="M5.5,1 L5.5,9.5 L1,9.5 C0.723857625,9.5 0.5,9.72385763 0.5,10 L0.5,14 C0.5,14.2761424 0.723857625,14.5 1,14.5 L15,14.5 C15.2761424,14.5 15.5,14.2761424 15.5,14 L15.5,10 C15.5,9.72385763 15.2761424,9.5 15,9.5 L10.5,9.5 L10.5,1 C10.5,0.723857625 10.2761424,0.5 10,0.5 L6,0.5 C5.72385763,0.5 5.5,0.723857625 5.5,1 Z" stroke-linejoin="square"></path>
            </g>
            <rect id="Rectangle-3" fill="#FF6841" x="0" y="13" width="16" height="7"></rect>
            <path d="M2,13 L3,13 L3,16 L2,16 L2,13 Z M4,13 L5,13 L5,16 L4,16 L4,13 Z M6,13 L7,13 L7,16 L6,16 L6,13 Z M8,13 L9,13 L9,16 L8,16 L8,13 Z M10,13 L11,13 L11,16 L10,16 L10,13 Z M12,13 L13,13 L13,16 L12,16 L12,13 Z M14,13 L15,13 L15,16 L14,16 L14,13 Z" id="Combined-Shape" fill="#FFFFFF"></path>
        </g>
    </g>
</svg>